<svg width="15" height="15" viewBox="0 0 15 15" fill="none" xmlns="http://www.w3.org/2000/svg">
<path d="M11.83 1.508C10.5993 0.502669 9.05667 0 7.202 0C5.798 0 4.55 0.29467 3.458 0.884C2.366 1.47333 1.51667 2.33133 0.91 3.458C0.30333 4.56733 0 5.876 0 7.384C0 8.892 0.30333 10.2007 0.91 11.31C1.51667 12.4193 2.366 13.2773 3.458 13.884C4.55 14.4733 5.798 14.768 7.202 14.768C9.05667 14.768 10.5993 14.2653 11.83 13.26C13.078 12.2547 13.858 10.8853 14.17 9.152H10.296C10.14 9.9147 9.7847 10.5213 9.23 10.972C8.67533 11.4053 7.97333 11.622 7.124 11.622C6.15333 11.622 5.33867 11.2667 4.68 10.556C4.03867 9.828 3.718 8.7707 3.718 7.384C3.718 5.9973 4.03867 4.9487 4.68 4.238C5.33867 3.51 6.15333 3.146 7.124 3.146C7.97333 3.146 8.67533 3.37133 9.23 3.822C9.7847 4.25533 10.14 4.8533 10.296 5.616H14.17C13.858 3.88267 13.078 2.51333 11.83 1.508Z" fill="white"/>
</svg>
