<svg width="46" height="57" viewBox="0 0 46 57" fill="none" xmlns="http://www.w3.org/2000/svg">
<path d="M4.90002 35.8082C8.62782 40.8363 14.0761 43.9936 20.3316 44.7589C21.638 44.9184 24.1444 44.9184 25.387 44.7589C30.538 44.1105 35.02 41.9419 38.578 38.3913C42.104 34.8727 44.27 30.578 45.035 25.5818C45.194 24.5293 45.205 24.2742 45.216 22.4139C45.216 20.3091 45.173 19.7988 44.855 18.1405C43.527 11.2308 38.865 5.21397 32.439 2.13117C30.357 1.13191 28.17 0.483458 25.748 0.132656C24.6861 -0.016169 21.6274 -0.0480601 20.491 0.0795043C12.8548 0.940564 6.28061 5.51162 2.85021 12.3682C1.75631 14.5581 1.04472 16.833 0.683617 19.3843C0.556117 20.2666 0.534912 20.6599 0.534912 22.3926C0.534912 24.1254 0.556117 24.5187 0.683617 25.401C1.07662 28.0905 1.68192 30.0465 2.80772 32.3533C3.47682 33.7034 4.08222 34.7132 4.90002 35.8082ZM6.55682 20.5642C6.88602 17.8322 7.89502 15.2065 9.44562 13.0167C10.6244 11.3477 11.9839 10.0295 13.7257 8.84956C16.0516 7.28689 18.5474 6.40457 21.5849 6.09629C22.1265 6.04314 24.548 6.11755 25.143 6.21323C27.129 6.53214 28.605 6.99987 30.304 7.86093C34.425 9.95512 37.399 13.5801 38.673 18.0448C39.077 19.448 39.183 20.2666 39.215 22.0631C39.247 23.8065 39.183 24.5293 38.865 25.9857C38.525 27.5484 37.739 29.4937 36.868 30.9395C35.615 33.0124 33.512 35.1278 31.43 36.3928C29.625 37.4878 27.681 38.2213 25.546 38.604C24.8029 38.7422 24.5055 38.7528 22.8487 38.7528C21.1919 38.7528 20.8945 38.7315 20.1511 38.604C16.6676 37.9768 13.7257 36.446 11.2617 33.9904C8.80832 31.5454 7.32152 28.6858 6.66302 25.1353C6.51432 24.1892 6.43992 21.5635 6.55682 20.5642Z" fill="#2054A2"/>
<path d="M7.49142 53.5183L7.51272 56.5692H38.2381L38.2701 50.4674H7.47021L7.49142 53.5183Z" fill="#2054A2"/>
</svg>
