<svg width="98" height="98" viewBox="0 0 98 98" fill="none" xmlns="http://www.w3.org/2000/svg">
<path d="M73.7528 35.9167C75.141 25.7276 70.7152 21.8659 59.6466 21.056L60.8028 12L46.2615 20.9284C40.9987 20.9922 36.7635 21.1518 32.0974 21.5347L24 76.9839C28.7159 77.327 32.9759 77.4905 38.3589 77.5663L37.2856 86L51.7399 77.6222C64.8888 77.4746 70.6282 74.5942 72.2527 63.727C73.587 54.7268 70.8354 49.1815 61.901 48.4594L61.9838 48.0565C69.7455 47.4102 72.6671 43.6322 73.7528 35.9167ZM58.8095 36.8821C58.4449 39.2199 57.9393 40.7678 57.0608 41.7731L57.0649 41.7851L47.0447 53.0393H50.8779C56.2196 53.0393 57.3882 54.2441 56.6381 59.6298C55.7181 65.4983 53.9652 66.7829 47.7036 66.7829H40.779L42.7806 53.0393L44.1978 43.4766L45.8679 31.7437H53.9652C58.2252 31.7397 59.3938 32.7849 58.8095 36.8821Z" fill="url(#paint0_linear_211_40)"/>
<defs>
<linearGradient id="paint0_linear_211_40" x1="21.6884" y1="74.76" x2="71.8594" y2="22.6453" gradientUnits="userSpaceOnUse">
<stop stop-color="#02A5DF"/>
<stop offset="1" stop-color="#FF21D0"/>
</linearGradient>
</defs>
</svg>
