<svg width="25" height="16" viewBox="0 0 25 16" fill="none" xmlns="http://www.w3.org/2000/svg">
<path d="M8.54492 11.25C8.54492 11.0091 8.50911 10.7943 8.4375 10.6055C8.36589 10.4102 8.23568 10.2311 8.04688 10.0684C7.85807 9.9056 7.59115 9.74284 7.24609 9.58008C6.90104 9.41081 6.44857 9.23828 5.88867 9.0625C5.25065 8.85417 4.64193 8.61979 4.0625 8.35938C3.48958 8.09245 2.97852 7.7832 2.5293 7.43164C2.08008 7.08008 1.72526 6.66992 1.46484 6.20117C1.21094 5.73242 1.08398 5.18555 1.08398 4.56055C1.08398 3.95508 1.21745 3.4082 1.48438 2.91992C1.7513 2.43164 2.12565 2.01497 2.60742 1.66992C3.08919 1.31836 3.6556 1.05143 4.30664 0.869141C4.95768 0.680339 5.67383 0.585938 6.45508 0.585938C7.49674 0.585938 8.41146 0.771484 9.19922 1.14258C9.99349 1.50716 10.612 2.02148 11.0547 2.68555C11.4974 3.3431 11.7188 4.10807 11.7188 4.98047H8.55469C8.55469 4.59635 8.47331 4.25781 8.31055 3.96484C8.1543 3.66536 7.91341 3.43099 7.58789 3.26172C7.26888 3.09245 6.86849 3.00781 6.38672 3.00781C5.91797 3.00781 5.52409 3.07943 5.20508 3.22266C4.89258 3.35938 4.65495 3.54818 4.49219 3.78906C4.33594 4.02995 4.25781 4.29362 4.25781 4.58008C4.25781 4.80794 4.31641 5.01628 4.43359 5.20508C4.55729 5.38737 4.73307 5.5599 4.96094 5.72266C5.19531 5.87891 5.48177 6.02865 5.82031 6.17188C6.15885 6.3151 6.54622 6.45182 6.98242 6.58203C7.74414 6.82292 8.41797 7.08984 9.00391 7.38281C9.59635 7.67578 10.0944 8.00781 10.498 8.37891C10.9017 8.75 11.2044 9.16992 11.4062 9.63867C11.6146 10.1074 11.7188 10.638 11.7188 11.2305C11.7188 11.862 11.5951 12.4219 11.3477 12.9102C11.1068 13.3984 10.7552 13.8151 10.293 14.1602C9.83724 14.4987 9.29036 14.7559 8.65234 14.9316C8.01432 15.1074 7.30143 15.1953 6.51367 15.1953C5.79753 15.1953 5.09115 15.1042 4.39453 14.9219C3.69792 14.7331 3.06641 14.4466 2.5 14.0625C1.9401 13.6784 1.49089 13.1901 1.15234 12.5977C0.820312 11.9987 0.654297 11.2891 0.654297 10.4688H3.83789C3.83789 10.8984 3.89974 11.263 4.02344 11.5625C4.14714 11.8555 4.32292 12.0931 4.55078 12.2754C4.78516 12.4577 5.06836 12.5879 5.40039 12.666C5.73242 12.7441 6.10352 12.7832 6.51367 12.7832C6.98893 12.7832 7.37305 12.7181 7.66602 12.5879C7.96549 12.4512 8.18685 12.2656 8.33008 12.0312C8.47331 11.7969 8.54492 11.5365 8.54492 11.25ZM21.7676 10.2344H24.9316C24.8796 11.2109 24.6126 12.0736 24.1309 12.8223C23.6556 13.5645 22.9948 14.1471 22.1484 14.5703C21.3021 14.987 20.2962 15.1953 19.1309 15.1953C18.1999 15.1953 17.3665 15.0358 16.6309 14.7168C15.8952 14.3978 15.2702 13.9421 14.7559 13.3496C14.248 12.7507 13.8574 12.0312 13.584 11.1914C13.3171 10.3451 13.1836 9.39128 13.1836 8.33008V7.46094C13.1836 6.39974 13.3236 5.44596 13.6035 4.59961C13.8835 3.75326 14.2839 3.0306 14.8047 2.43164C15.3255 1.83268 15.9505 1.3737 16.6797 1.05469C17.4089 0.735677 18.2227 0.576172 19.1211 0.576172C20.332 0.576172 21.3542 0.794271 22.1875 1.23047C23.0208 1.66667 23.6654 2.26562 24.1211 3.02734C24.5833 3.78906 24.86 4.6582 24.9512 5.63477H21.7773C21.7513 5.08138 21.6471 4.61589 21.4648 4.23828C21.2826 3.85417 21.0026 3.56445 20.625 3.36914C20.2474 3.17383 19.7461 3.07617 19.1211 3.07617C18.6654 3.07617 18.265 3.16081 17.9199 3.33008C17.5814 3.49935 17.2982 3.76302 17.0703 4.12109C16.849 4.47917 16.6829 4.9349 16.5723 5.48828C16.4616 6.03516 16.4062 6.6862 16.4062 7.44141V8.33008C16.4062 9.07878 16.4551 9.72656 16.5527 10.2734C16.6504 10.8203 16.8066 11.2728 17.0215 11.6309C17.2428 11.9889 17.526 12.2559 17.8711 12.4316C18.2161 12.6074 18.6361 12.6953 19.1309 12.6953C19.6973 12.6953 20.1693 12.6074 20.5469 12.4316C20.9245 12.2493 21.2142 11.9759 21.416 11.6113C21.6178 11.2467 21.735 10.7878 21.7676 10.2344Z" fill="#D3931F"/>
</svg>
